<?xml version="1.0" encoding="UTF-8"?>
<svg id="Layer_1" data-name="Layer 1" xmlns="http://www.w3.org/2000/svg" viewBox="0 0 1200 608.37">
  <defs>
    <style>
      .cls-1 {
        letter-spacing: -.02em;
      }

      .cls-2 {
        letter-spacing: -.05em;
      }

      .cls-3 {
        letter-spacing: -.05em;
      }

      .cls-4 {
        letter-spacing: -.04em;
      }

      .cls-5 {
        font-family: Gotham-Bold, Gotham;
        font-size: 47.07px;
        font-weight: 700;
      }

      .cls-5, .cls-6 {
        fill: #fff;
      }

      .cls-6 {
        stroke-width: 0px;
      }

      .cls-7 {
        letter-spacing: -.03em;
      }
    </style>
  </defs>
  <g>
    <path class="cls-6" d="m384.39,296.4c0-15.43,2.23-29.83,6.69-43.21,4.46-13.37,11.14-24.97,20.06-34.79,8.91-9.83,20.03-17.55,33.36-23.15,13.32-5.61,28.8-8.42,46.44-8.42s32.98,2.81,46.3,8.42c13.32,5.6,24.44,13.32,33.36,23.15,8.92,9.83,15.65,21.42,20.2,34.79,4.55,13.37,6.83,27.77,6.83,43.21s-2.28,29.64-6.83,42.92c-4.55,13.28-11.29,24.81-20.2,34.58-8.91,9.78-20.03,17.47-33.36,23.08-13.32,5.61-28.76,8.41-46.3,8.41s-33.12-2.8-46.44-8.41c-13.32-5.61-24.44-13.3-33.36-23.08-8.91-9.78-15.6-21.31-20.06-34.58-4.46-13.28-6.69-27.58-6.69-42.92Zm49.46,0c0,11.03,1.48,20.73,4.46,29.12,2.97,8.39,7.02,15.39,12.15,20.99,5.13,5.61,11.17,9.85,18.12,12.73,6.95,2.87,14.4,4.31,22.36,4.31s14.93-1.44,21.78-4.31c6.85-2.88,12.84-7.12,17.97-12.73,5.13-5.6,9.2-12.6,12.22-20.99,3.02-8.39,4.53-18.09,4.53-29.12s-1.51-20.3-4.53-28.68c-3.02-8.39-7.09-15.48-12.22-21.28-5.13-5.8-11.12-10.21-17.97-13.23-6.85-3.03-14.12-4.53-21.78-4.53s-15.41,1.51-22.36,4.53c-6.95,3.02-12.99,7.43-18.12,13.23-5.13,5.8-9.18,12.89-12.15,21.28-2.97,8.39-4.46,17.95-4.46,28.68Z"/>
    <g>
      <polygon class="cls-6" points="610.46 191.59 687.52 400.65 737.7 400.65 664.08 191.59 610.46 191.59"/>
      <circle class="cls-6" cx="767.56" cy="219.91" r="32.54"/>
    </g>
    <g>
      <polygon class="cls-6" points="1032.83 270.44 973.87 270.37 973.87 87.46 926.28 87.46 926.28 400.65 973.87 400.65 973.87 274.07 1059.79 400.65 1120.54 400.65 1032.83 270.44"/>
      <path class="cls-6" d="m1076.51,252.45c17.97,0,32.54-14.57,32.54-32.54s-14.57-32.54-32.54-32.54-32.54,14.57-32.54,32.54,14.57,32.54,32.54,32.54Z"/>
    </g>
    <g>
      <rect class="cls-6" x="832.82" y="191.59" width="48.31" height="209.06"/>
      <path class="cls-6" d="m856.98,152.55c17.97,0,32.54-14.57,32.54-32.54s-14.57-32.54-32.54-32.54-32.54,14.57-32.54,32.54,14.57,32.54,32.54,32.54Z"/>
    </g>
    <g>
      <polygon class="cls-6" points="134.12 191.59 207.74 400.65 261.37 400.65 184.3 191.59 134.12 191.59"/>
      <polygon class="cls-6" points="290.58 191.59 240.4 191.59 314.02 400.65 367.65 400.65 290.58 191.59"/>
      <path class="cls-6" d="m103.61,339.49c-17.97,0-32.54,14.57-32.54,32.54s14.57,32.54,32.54,32.54,32.54-14.57,32.54-32.54-14.57-32.54-32.54-32.54Z"/>
    </g>
  </g>
  <text class="cls-5" transform="translate(265.69 494.78)"><tspan class="cls-1" x="0" y="0">M</tspan><tspan class="cls-3" x="39.92" y="0">o</tspan><tspan class="cls-1" x="68.82" y="0">ving Things N</tspan><tspan class="cls-4" x="384.34" y="0">e</tspan><tspan class="cls-2" x="411.08" y="0">v</tspan><tspan class="cls-1" x="436.97" y="0">er So Ea</tspan><tspan class="cls-7" x="627" y="0">s</tspan><tspan class="cls-1" x="648.98" y="0">y</tspan></text>
</svg>