<?xml version="1.0" encoding="UTF-8"?>
<svg id="Layer_1" data-name="Layer 1" xmlns="http://www.w3.org/2000/svg" viewBox="0 0 1200 608.37">
  <defs>
    <style>
      .cls-1 {
        fill: #131323;
      }

      .cls-1, .cls-2 {
        stroke-width: 0px;
      }

      .cls-2 {
        fill: #f43e28;
      }
    </style>
  </defs>
  <path class="cls-1" d="m382.39,317.4c0-15.43,2.23-29.83,6.69-43.21,4.46-13.37,11.14-24.97,20.06-34.79,8.91-9.83,20.03-17.55,33.36-23.15,13.32-5.61,28.8-8.42,46.44-8.42s32.98,2.81,46.3,8.42c13.32,5.6,24.44,13.32,33.36,23.15,8.92,9.83,15.65,21.42,20.2,34.79,4.55,13.37,6.83,27.77,6.83,43.21s-2.28,29.64-6.83,42.92c-4.55,13.28-11.29,24.81-20.2,34.58-8.91,9.78-20.03,17.47-33.36,23.08-13.32,5.61-28.76,8.41-46.3,8.41s-33.12-2.8-46.44-8.41c-13.32-5.61-24.44-13.3-33.36-23.08-8.91-9.78-15.6-21.31-20.06-34.58-4.46-13.28-6.69-27.58-6.69-42.92Zm49.46,0c0,11.03,1.48,20.73,4.46,29.12,2.97,8.39,7.02,15.39,12.15,20.99,5.13,5.61,11.17,9.85,18.12,12.73,6.95,2.87,14.4,4.31,22.36,4.31s14.93-1.44,21.78-4.31c6.85-2.88,12.84-7.12,17.97-12.73,5.13-5.6,9.2-12.6,12.22-20.99,3.02-8.39,4.53-18.09,4.53-29.12s-1.51-20.3-4.53-28.68c-3.02-8.39-7.09-15.48-12.22-21.28-5.13-5.8-11.12-10.21-17.97-13.23-6.85-3.03-14.12-4.53-21.78-4.53s-15.41,1.51-22.36,4.53c-6.95,3.02-12.99,7.43-18.12,13.23-5.13,5.8-9.18,12.89-12.15,21.28-2.97,8.39-4.46,17.95-4.46,28.68Z"/>
  <g>
    <polygon class="cls-1" points="608.46 212.59 685.52 421.65 735.7 421.65 662.08 212.59 608.46 212.59"/>
    <circle class="cls-1" cx="765.56" cy="240.91" r="32.54"/>
  </g>
  <g>
    <polygon class="cls-1" points="1030.83 291.44 971.87 291.37 971.87 108.46 924.28 108.46 924.28 421.65 971.87 421.65 971.87 295.07 1057.79 421.65 1118.54 421.65 1030.83 291.44"/>
    <path class="cls-1" d="m1074.51,273.45c17.97,0,32.54-14.57,32.54-32.54s-14.57-32.54-32.54-32.54-32.54,14.57-32.54,32.54,14.57,32.54,32.54,32.54Z"/>
  </g>
  <g>
    <rect class="cls-1" x="830.82" y="212.59" width="48.31" height="209.06"/>
    <path class="cls-2" d="m854.98,173.55c17.97,0,32.54-14.57,32.54-32.54s-14.57-32.54-32.54-32.54-32.54,14.57-32.54,32.54,14.57,32.54,32.54,32.54Z"/>
  </g>
  <g>
    <polygon class="cls-1" points="132.12 212.59 205.74 421.65 259.37 421.65 182.3 212.59 132.12 212.59"/>
    <polygon class="cls-1" points="288.58 212.59 238.4 212.59 312.02 421.65 365.65 421.65 288.58 212.59"/>
    <path class="cls-2" d="m101.61,360.49c-17.97,0-32.54,14.57-32.54,32.54s14.57,32.54,32.54,32.54,32.54-14.57,32.54-32.54-14.57-32.54-32.54-32.54Z"/>
  </g>
</svg>